<svg width="64" height="67" viewBox="0 0 64 67" fill="none" xmlns="http://www.w3.org/2000/svg">
<path fill-rule="evenodd" clip-rule="evenodd" d="M30.1623 38.3088C30.1623 38.3934 30.1214 38.4694 30.0968 38.5371C29.0339 42.8494 28.9195 43.8049 27.832 45.8004C27.3099 46.7477 26.7225 47.6548 26.0741 48.5147C26.0005 48.6161 25.9269 48.7345 25.7798 48.7091C25.6326 48.6838 25.6081 48.5231 25.5917 48.3878C25.4092 47.0833 25.3326 45.7653 25.3628 44.4475C25.42 42.7564 25.6244 42.1392 27.7666 32.8127C27.7922 32.681 27.775 32.5442 27.7176 32.4237C27.1863 31.0306 27.1286 29.4921 27.554 28.0607C28.527 24.8814 32.0101 24.6784 32.6233 27.2658C32.9994 28.8893 32.0019 31.0116 31.2415 34.1487C30.612 36.7445 33.5554 38.5878 36.0819 36.6853C38.4039 34.9435 39.3033 30.7664 39.1316 27.7985C38.7964 21.8797 32.5334 20.6113 28.5597 22.5138C24.0055 24.6954 22.9672 30.5381 25.0276 33.2016C25.2892 33.5399 25.4854 33.7512 25.4037 34.0979C25.2647 34.6306 25.1502 35.1633 25.0112 35.696C24.993 35.7843 24.9549 35.867 24.9001 35.9372C24.8453 36.0075 24.7752 36.0634 24.6956 36.1005C24.616 36.1375 24.529 36.1547 24.4418 36.1505C24.3546 36.1463 24.2696 36.121 24.1936 36.0765C23.4496 35.7628 22.7963 35.2561 22.2967 34.6053C20.547 32.3645 20.0482 27.9423 22.3539 24.1965C24.9131 20.0448 29.6717 18.3621 34.0215 18.8779C39.2134 19.4867 42.4921 23.1564 43.1053 27.3335C43.3833 29.2275 43.187 33.895 40.6115 37.2011C37.6517 40.9977 32.8522 41.2513 30.6365 38.8922C30.4402 38.6978 30.334 38.4864 30.1623 38.3088Z" fill="#FFD76E"/>
</svg>
