<svg width="64" height="67" viewBox="0 0 64 67" fill="none" xmlns="http://www.w3.org/2000/svg">
<path d="M39.2402 23.5327C38.911 23.5327 38.5893 23.6341 38.3157 23.8241C38.042 24.0141 37.8288 24.2841 37.7028 24.6C37.5769 24.916 37.5439 25.2636 37.6081 25.599C37.6724 25.9344 37.8308 26.2425 38.0635 26.4843C38.2963 26.7261 38.5928 26.8908 38.9155 26.9575C39.2383 27.0242 39.5729 26.99 39.8769 26.8591C40.181 26.7282 40.4409 26.5066 40.6237 26.2223C40.8066 25.938 40.9042 25.6037 40.9042 25.2617C40.9042 24.8032 40.7289 24.3634 40.4168 24.0391C40.1047 23.7149 39.6815 23.5327 39.2402 23.5327Z" fill="#FFD76E"/>
<path d="M31.8642 25.7522C30.4841 25.7522 29.1351 26.1775 27.9877 26.9744C26.8403 27.7712 25.9462 28.9038 25.4184 30.2287C24.8907 31.5537 24.753 33.0116 25.0228 34.4179C25.2926 35.8242 25.9578 37.1157 26.9342 38.1291C27.9107 39.1425 29.1544 39.8322 30.5081 40.1109C31.8619 40.3897 33.2648 40.2449 34.5393 39.6951C35.8139 39.1452 36.9028 38.2148 37.6684 37.0217C38.434 35.8286 38.8418 34.4264 38.8402 32.9924C38.8381 31.0714 38.1021 29.2299 36.7941 27.8723C35.4861 26.5147 33.7129 25.7522 31.8642 25.7522ZM31.8642 37.6391C30.9794 37.6407 30.114 37.3696 29.3775 36.86C28.641 36.3504 28.0666 35.6253 27.7269 34.7764C27.3872 33.9274 27.2975 32.9929 27.4691 32.091C27.6408 31.1891 28.0661 30.3603 28.6912 29.7096C29.3163 29.0589 30.1131 28.6156 30.9808 28.4356C31.8485 28.2556 32.7481 28.3472 33.5657 28.6986C34.3833 29.0501 35.0822 29.6456 35.574 30.41C36.0657 31.1743 36.3282 32.073 36.3282 32.9924C36.3313 33.604 36.2183 34.2102 35.9954 34.7763C35.7726 35.3424 35.4444 35.8573 35.0297 36.2913C34.615 36.7253 34.1219 37.07 33.5786 37.3055C33.0354 37.5411 32.4528 37.6629 31.8642 37.664V37.6391Z" fill="#FFD76E"/>
<path d="M37.4241 47.7055H26.0961C23.8427 47.7011 21.683 46.7685 20.0904 45.1121C18.4977 43.4557 17.6022 41.2107 17.6001 38.8693V27.1238C17.6022 24.7824 18.4977 22.5374 20.0904 20.881C21.683 19.2246 23.8427 18.292 26.0961 18.2876H37.4241C39.6788 18.2898 41.8406 19.2215 43.435 20.8781C45.0293 22.5347 45.926 24.781 45.9281 27.1238V38.8693C45.926 41.2122 45.0293 43.4584 43.435 45.115C41.8406 46.7717 39.6788 47.7033 37.4241 47.7055ZM26.0961 21.039C24.5485 21.0434 23.0656 21.6841 21.9713 22.8212C20.877 23.9582 20.2603 25.4991 20.2561 27.1072V38.8527C20.2603 40.4607 20.877 42.0016 21.9713 43.1387C23.0656 44.2757 24.5485 44.9165 26.0961 44.9208H37.4241C38.9717 44.9165 40.4546 44.2757 41.5489 43.1387C42.6432 42.0016 43.2599 40.4607 43.2641 38.8527V27.1238C43.2641 25.5129 42.6493 23.9677 41.5546 22.8271C40.4598 21.6864 38.9744 21.0434 37.4241 21.039H26.0961Z" fill="#FFD76E"/>
</svg>
