<svg width="64" height="67" viewBox="0 0 64 67" fill="none" xmlns="http://www.w3.org/2000/svg">
<path d="M48.5964 21.8038C47.4862 22.3002 46.3193 22.6467 45.1244 22.8346C45.6844 22.7349 46.5004 21.6792 46.8284 21.2552C47.3433 20.6083 47.7367 19.8668 47.9884 19.069C47.9884 19.0109 48.0364 18.9277 47.9884 18.8862C47.9597 18.8715 47.9283 18.8639 47.8964 18.8639C47.8645 18.8639 47.833 18.8715 47.8044 18.8862C46.5002 19.6164 45.1135 20.1749 43.6764 20.5487C43.6269 20.5638 43.5743 20.564 43.5248 20.5493C43.4752 20.5346 43.4307 20.5055 43.3964 20.4655C43.2866 20.3281 43.1662 20.2002 43.0364 20.0832C42.4375 19.5536 41.7627 19.1245 41.0364 18.8113C40.0651 18.4035 39.0175 18.2302 37.9724 18.3043C36.9588 18.3655 35.9691 18.6488 35.0684 19.1355C34.1638 19.6268 33.366 20.3058 32.7244 21.1305C32.0555 21.9803 31.5773 22.9741 31.3244 24.0399C31.102 25.0495 31.0748 26.0949 31.2444 27.1155C31.2444 27.2901 31.2443 27.315 31.1083 27.2901C25.4443 26.4589 20.7084 24.3059 16.9324 19.8089C16.7724 19.6177 16.6844 19.6177 16.5484 19.8089C14.8764 22.4107 15.6844 26.5835 17.7724 28.6284C18.0472 28.9229 18.3384 29.2005 18.6444 29.4597C17.6882 29.3748 16.7579 29.0922 15.9083 28.6284C15.7403 28.5204 15.6604 28.5868 15.6444 28.778C15.6342 29.0561 15.6502 29.3345 15.6924 29.6093C15.8586 30.9339 16.3601 32.1889 17.1458 33.2463C17.9314 34.3036 18.9731 35.1253 20.1644 35.6275C20.4564 35.7591 20.7626 35.854 21.0764 35.9102C20.194 36.0944 19.2884 36.1253 18.3964 36.0016C18.1964 36.0016 18.1244 36.0598 18.1964 36.2593C19.3804 39.5843 21.9244 40.5901 23.7964 41.1637C24.0524 41.2052 24.3084 41.2052 24.5964 41.2717C24.5964 41.2717 24.5964 41.2717 24.5964 41.3133C23.9644 42.3191 21.7644 43.0672 20.7484 43.433C18.8756 44.1266 16.8811 44.3931 14.9004 44.2144C14.5884 44.1645 14.5244 44.1645 14.4364 44.2144C14.3484 44.2642 14.4364 44.3474 14.5244 44.4305C14.9244 44.7048 15.3244 44.9458 15.7404 45.1786C16.9816 45.8699 18.2939 46.4137 19.6524 46.7995C26.6684 48.8195 34.5804 47.3399 39.8524 41.8952C43.9884 37.6225 45.4524 31.729 45.4524 25.8271C45.4524 25.5943 45.7164 25.4697 45.8764 25.345C46.9249 24.4995 47.8493 23.4998 48.6204 22.3774C48.7437 22.2173 48.8088 22.0172 48.8044 21.8122C48.7404 21.7124 48.7404 21.7373 48.5964 21.8038Z" fill="#FFD76E"/>
</svg>
